<svg xmlns="http://www.w3.org/2000/svg">
    <defs>
        <symbol id="github" viewBox="0 0 24 24" stroke="currentColor" fill="none" stroke-width="1.2">
            <path d="M12 .297c-6.63 0-12 5.373-12 12 0 5.303 3.438 9.8 8.205 11.385.6.113.82-.258.82-.577 0-.285-.01-1.04-.015-2.04-3.338.724-4.042-1.61-4.042-1.61C4.422 18.07 3.633 17.7 3.633 17.7c-1.087-.744.084-.729.084-.729 1.205.084 1.838 1.236 1.838 1.236 1.07 1.835 2.809 1.305 3.495.998.108-.776.417-1.305.76-1.605-2.665-.3-5.466-1.332-5.466-5.93 0-1.31.465-2.38 1.235-3.22-.135-.303-.54-1.523.105-3.176 0 0 1.005-.322 3.3 1.23.96-.267 1.98-.399 3-.405 1.02.006 2.04.138 3 .405 2.28-1.552 3.285-1.23 3.285-1.23.645 1.653.24 2.873.12 3.176.765.84 1.23 1.91 1.23 3.22 0 4.61-2.805 5.625-5.475 5.92.42.36.81 1.096.81 2.22 0 1.606-.015 2.896-.015 3.286 0 .315.21.69.825.57C20.565 22.092 24 17.592 24 12.297c0-6.627-5.373-12-12-12"></path>
        </symbol>
        <symbol id="linkedin" viewBox="0 0 24 24" stroke="currentColor" fill="none">
            <path d="M20.447 20.452h-3.554v-5.569c0-1.328-.027-3.037-1.852-3.037-1.853 0-2.136 1.445-2.136 2.939v5.667H9.351V9h3.414v1.561h.046c.477-.9 1.637-1.85 3.37-1.85 3.601 0 4.267 2.37 4.267 5.455v6.286zM5.337 7.433c-1.144 0-2.063-.926-2.063-2.065 0-1.138.92-2.063 2.063-2.063 1.14 0 2.064.925 2.064 2.063 0 1.139-.925 2.065-2.064 2.065zm1.782 13.019H3.555V9h3.564v11.452zM22.225 0H1.771C.792 0 0 .774 0 1.729v20.542C0 23.227.792 24 1.771 24h20.451C23.2 24 24 23.227 24 22.271V1.729C24 .774 23.2 0 22.222 0h.003z"/>
        </symbol>
        <symbol id="mail" viewBox="0 0 24 24" stroke="currentColor" stroke-linecap="round" stroke-linejoin="round" fill="none" stroke-width="1.2">
            <path d="M4 4h16c1.1 0 2 .9 2 2v12c0 1.1-.9 2-2 2H4c-1.1 0-2-.9-2-2V6c0-1.1.9-2 2-2z"></path>
            <polyline points="22,6 12,13 2,6"></polyline>
        </symbol>
        <symbol id="phone" viewBox="0 0 24 24" stroke="currentColor" stroke-linecap="round" stroke-linejoin="round" fill="none" stroke-width="1.2">
            <path d="M22 16.92v3a2 2 0 0 1-2.18 2 19.79 19.79 0 0 1-8.63-3.07 19.5 19.5 0 0 1-6-6 19.79 19.79 0 0 1-3.07-8.67A2 2 0 0 1 4.11 2h3a2 2 0 0 1 2 1.72 12.84 12.84 0 0 0 .7 2.81 2 2 0 0 1-.45 2.11L8.09 9.91a16 16 0 0 0 6 6l1.27-1.27a2 2 0 0 1 2.11-.45 12.84 12.84 0 0 0 2.81.7A2 2 0 0 1 22 16.92z"></path>
        </symbol>
        <symbol id="linkedinCircle" viewBox="0 0 50 50" stroke="currentColor" fill="currentColor" fill-rule="evenodd" stroke-width="0.0001">
            <path d="M25,50 C38.8071194,50 50,38.8071194 50,25 C50,11.1928806 38.8071194,0 25,0 C11.1928806,0 0,11.1928806 0,25 C0,38.8071194 11.1928806,50 25,50 Z M25,47 C37.1502651,47 47,37.1502651 47,25 C47,12.8497349 37.1502651,3 25,3 C12.8497349,3 3,12.8497349 3,25 C3,37.1502651 12.8497349,47 25,47 Z M14,20.1180479 L14,34.6581834 L18.7100851,34.6581834 L18.7100851,20.1180479 L14,20.1180479 Z M16.6646962,13 C15.0534058,13 14,14.0858611 14,15.5115122 C14,16.9076331 15.0222711,18.0247614 16.6035556,18.0247614 L16.6336556,18.0247614 C18.2759867,18.0247614 19.2988222,16.9076331 19.2988222,15.5115122 C19.2682519,14.0858611 18.2759867,13 16.6646962,13 Z M30.5769213,20.1180479 C28.076176,20.1180479 26.9565501,21.5293199 26.3314108,22.5193527 L26.3314108,20.4598644 L21.6207614,20.4598644 C21.6828427,21.8242356 21.6207614,35 21.6207614,35 L26.3314108,35 L26.3314108,26.8795887 C26.3314108,26.445032 26.3619812,26.0115368 26.4865199,25.7004084 C26.826932,24.83226 27.6020069,23.9334233 28.9032674,23.9334233 C30.6083381,23.9334233 31.2899149,25.2667202 31.2899149,27.2206333 L31.2899149,34.999614 L35.9998119,34.999614 L36,26.6627446 C36,22.1966439 33.6763743,20.1180479 30.5769213,20.1180479 Z M30.5769213,20.1180479"/>
        </symbol>
    </defs>
</svg>