<svg xmlns="http://www.w3.org/2000/svg">
    <defs>
        <symbol id="github" viewBox="0 0 24 24" stroke="currentColor" fill="none" stroke-width="1.2">
            <path d="M12 .297c-6.63 0-12 5.373-12 12 0 5.303 3.438 9.8 8.205 11.385.6.113.82-.258.82-.577 0-.285-.01-1.04-.015-2.04-3.338.724-4.042-1.61-4.042-1.61C4.422 18.07 3.633 17.7 3.633 17.7c-1.087-.744.084-.729.084-.729 1.205.084 1.838 1.236 1.838 1.236 1.07 1.835 2.809 1.305 3.495.998.108-.776.417-1.305.76-1.605-2.665-.3-5.466-1.332-5.466-5.93 0-1.31.465-2.38 1.235-3.22-.135-.303-.54-1.523.105-3.176 0 0 1.005-.322 3.3 1.23.96-.267 1.98-.399 3-.405 1.02.006 2.04.138 3 .405 2.28-1.552 3.285-1.23 3.285-1.23.645 1.653.24 2.873.12 3.176.765.84 1.23 1.91 1.23 3.22 0 4.61-2.805 5.625-5.475 5.92.42.36.81 1.096.81 2.22 0 1.606-.015 2.896-.015 3.286 0 .315.21.69.825.57C20.565 22.092 24 17.592 24 12.297c0-6.627-5.373-12-12-12"></path>
        </symbol>
        <symbol id="linkedin" viewBox="0 0 24 24" stroke="currentColor" fill="none">
            <path d="M20.447 20.452h-3.554v-5.569c0-1.328-.027-3.037-1.852-3.037-1.853 0-2.136 1.445-2.136 2.939v5.667H9.351V9h3.414v1.561h.046c.477-.9 1.637-1.85 3.37-1.85 3.601 0 4.267 2.37 4.267 5.455v6.286zM5.337 7.433c-1.144 0-2.063-.926-2.063-2.065 0-1.138.92-2.063 2.063-2.063 1.14 0 2.064.925 2.064 2.063 0 1.139-.925 2.065-2.064 2.065zm1.782 13.019H3.555V9h3.564v11.452zM22.225 0H1.771C.792 0 0 .774 0 1.729v20.542C0 23.227.792 24 1.771 24h20.451C23.2 24 24 23.227 24 22.271V1.729C24 .774 23.2 0 22.222 0h.003z"/>
        </symbol>
        <symbol id="mail" viewBox="0 0 24 24" stroke="currentColor" stroke-linecap="round" stroke-linejoin="round" fill="none" stroke-width="1.2">
            <path d="M4 4h16c1.1 0 2 .9 2 2v12c0 1.1-.9 2-2 2H4c-1.1 0-2-.9-2-2V6c0-1.1.9-2 2-2z"></path>
            <polyline points="22,6 12,13 2,6"></polyline>
        </symbol>
        <symbol id="phone" viewBox="0 0 24 24" stroke="currentColor" stroke-linecap="round" stroke-linejoin="round" fill="none" stroke-width="1.2">
            <path d="M22 16.92v3a2 2 0 0 1-2.18 2 19.79 19.79 0 0 1-8.63-3.07 19.5 19.5 0 0 1-6-6 19.79 19.79 0 0 1-3.07-8.67A2 2 0 0 1 4.11 2h3a2 2 0 0 1 2 1.72 12.84 12.84 0 0 0 .7 2.81 2 2 0 0 1-.45 2.11L8.09 9.91a16 16 0 0 0 6 6l1.27-1.27a2 2 0 0 1 2.11-.45 12.84 12.84 0 0 0 2.81.7A2 2 0 0 1 22 16.92z"></path>
        </symbol>
        <symbol id="linkedinCircle" viewBox="0 0 50 50" stroke="currentColor" fill="currentColor" fill-rule="evenodd" stroke-width="0.0001">
            <path d="M25,50 C38.8071194,50 50,38.8071194 50,25 C50,11.1928806 38.8071194,0 25,0 C11.1928806,0 0,11.1928806 0,25 C0,38.8071194 11.1928806,50 25,50 Z M25,47 C37.1502651,47 47,37.1502651 47,25 C47,12.8497349 37.1502651,3 25,3 C12.8497349,3 3,12.8497349 3,25 C3,37.1502651 12.8497349,47 25,47 Z M14,20.1180479 L14,34.6581834 L18.7100851,34.6581834 L18.7100851,20.1180479 L14,20.1180479 Z M16.6646962,13 C15.0534058,13 14,14.0858611 14,15.5115122 C14,16.9076331 15.0222711,18.0247614 16.6035556,18.0247614 L16.6336556,18.0247614 C18.2759867,18.0247614 19.2988222,16.9076331 19.2988222,15.5115122 C19.2682519,14.0858611 18.2759867,13 16.6646962,13 Z M30.5769213,20.1180479 C28.076176,20.1180479 26.9565501,21.5293199 26.3314108,22.5193527 L26.3314108,20.4598644 L21.6207614,20.4598644 C21.6828427,21.8242356 21.6207614,35 21.6207614,35 L26.3314108,35 L26.3314108,26.8795887 C26.3314108,26.445032 26.3619812,26.0115368 26.4865199,25.7004084 C26.826932,24.83226 27.6020069,23.9334233 28.9032674,23.9334233 C30.6083381,23.9334233 31.2899149,25.2667202 31.2899149,27.2206333 L31.2899149,34.999614 L35.9998119,34.999614 L36,26.6627446 C36,22.1966439 33.6763743,20.1180479 30.5769213,20.1180479 Z M30.5769213,20.1180479"/>
        </symbol>
        <symbol id="copy" viewBox="0 0 511.627 511.627" stroke="currentColor" fill="currentColor">
            <path d="M503.633,117.628c-5.332-5.327-11.8-7.993-19.41-7.993H365.446c-11.417,0-23.603,3.806-36.542,11.42V27.412
		c0-7.616-2.662-14.092-7.994-19.417C315.578,2.666,309.11,0,301.492,0H182.725c-7.614,0-15.99,1.903-25.125,5.708
		c-9.136,3.806-16.368,8.376-21.7,13.706L19.414,135.901c-5.33,5.329-9.9,12.563-13.706,21.698C1.903,166.738,0,175.108,0,182.725
		v191.858c0,7.618,2.663,14.093,7.992,19.417c5.33,5.332,11.803,7.994,19.414,7.994h155.318v82.229c0,7.61,2.662,14.085,7.992,19.41
		c5.327,5.332,11.8,7.994,19.414,7.994h274.091c7.61,0,14.085-2.662,19.41-7.994c5.332-5.325,7.994-11.8,7.994-19.41V137.046
		C511.627,129.432,508.965,122.958,503.633,117.628z M328.904,170.449v85.364h-85.366L328.904,170.449z M146.178,60.813v85.364
		H60.814L146.178,60.813z M202.139,245.535c-5.33,5.33-9.9,12.564-13.706,21.701c-3.805,9.141-5.708,17.508-5.708,25.126v73.083
		H36.547V182.725h118.766c7.616,0,14.087-2.664,19.417-7.994c5.327-5.33,7.994-11.801,7.994-19.412V36.547h109.637v118.771
		L202.139,245.535z M475.078,475.085H219.263V292.355h118.775c7.614,0,14.082-2.662,19.41-7.994
		c5.328-5.325,7.994-11.797,7.994-19.41V146.178h109.629v328.907H475.078z"/>
        </symbol>
        <symbol id="back" viewBox="0 0 511.63 511.631" stroke="currentColor" fill="currentColor">
            <path d="M496.5,233.842c-30.841-76.706-114.112-115.06-249.823-115.06h-63.953V45.693c0-4.952-1.809-9.235-5.424-12.85
		c-3.617-3.617-7.896-5.426-12.847-5.426c-4.952,0-9.235,1.809-12.85,5.426L5.424,179.021C1.809,182.641,0,186.922,0,191.871
		c0,4.948,1.809,9.229,5.424,12.847L151.604,350.9c3.619,3.613,7.902,5.428,12.85,5.428c4.947,0,9.229-1.814,12.847-5.428
		c3.616-3.614,5.424-7.898,5.424-12.848v-73.094h63.953c18.649,0,35.349,0.568,50.099,1.708c14.749,1.143,29.413,3.189,43.968,6.143
		c14.564,2.95,27.224,6.991,37.979,12.135c10.753,5.144,20.794,11.756,30.122,19.842c9.329,8.094,16.943,17.7,22.847,28.839
		c5.896,11.136,10.513,24.311,13.846,39.539c3.326,15.229,4.997,32.456,4.997,51.675c0,10.466-0.479,22.176-1.428,35.118
		c0,1.137-0.236,3.375-0.715,6.708c-0.473,3.333-0.712,5.852-0.712,7.562c0,2.851,0.808,5.232,2.423,7.136
		c1.622,1.902,3.86,2.851,6.714,2.851c3.046,0,5.708-1.615,7.994-4.853c1.328-1.711,2.561-3.806,3.71-6.283
		c1.143-2.471,2.43-5.325,3.854-8.562c1.431-3.237,2.43-5.513,2.998-6.848c24.17-54.238,36.258-97.158,36.258-128.756
		C511.63,291.039,506.589,259.344,496.5,233.842z"/>
        </symbol>
        <symbol id="angleDown" viewBox="0 0 284.929 284.929" stroke="currentColor" fill="currentColor">
            <path d="M282.082,76.511l-14.274-14.273c-1.902-1.906-4.093-2.856-6.57-2.856c-2.471,0-4.661,0.95-6.563,2.856L142.466,174.441
		L30.262,62.241c-1.903-1.906-4.093-2.856-6.567-2.856c-2.475,0-4.665,0.95-6.567,2.856L2.856,76.515C0.95,78.417,0,80.607,0,83.082
		c0,2.473,0.953,4.663,2.856,6.565l133.043,133.046c1.902,1.903,4.093,2.854,6.567,2.854s4.661-0.951,6.562-2.854L282.082,89.647
		c1.902-1.903,2.847-4.093,2.847-6.565C284.929,80.607,283.984,78.417,282.082,76.511z"/>
        </symbol>
        <symbol id="play" viewBox="0 0 443.307 443.306" stroke="currentColor" fill="currentColor">
            <path d="M415.934,212.799L36.788,2.097C32.411-0.377,28.65-0.661,25.51,1.242c-3.14,1.902-4.708,5.328-4.708,10.276V431.78
		c0,4.952,1.569,8.381,4.708,10.284c3.14,1.902,6.901,1.622,11.278-0.855l379.146-210.703c4.381-2.478,6.571-5.434,6.571-8.856
		C422.505,218.224,420.314,215.274,415.934,212.799z"/>
        </symbol>
        <symbol id="code" viewBox="0 0 522.468 522.469" stroke="currentColor" fill="currentColor">
            <path d="M325.762,70.513l-17.706-4.854c-2.279-0.76-4.524-0.521-6.707,0.715c-2.19,1.237-3.669,3.094-4.429,5.568L190.426,440.53
			c-0.76,2.475-0.522,4.809,0.715,6.995c1.237,2.19,3.09,3.665,5.568,4.425l17.701,4.856c2.284,0.766,4.521,0.526,6.71-0.712
			c2.19-1.243,3.666-3.094,4.425-5.564L332.042,81.936c0.759-2.474,0.523-4.808-0.716-6.999
			C330.088,72.747,328.237,71.272,325.762,70.513z"/>
		<path d="M166.167,142.465c0-2.474-0.953-4.665-2.856-6.567l-14.277-14.276c-1.903-1.903-4.093-2.857-6.567-2.857
			s-4.665,0.955-6.567,2.857L2.856,254.666C0.95,256.569,0,258.759,0,261.233c0,2.474,0.953,4.664,2.856,6.566l133.043,133.044
			c1.902,1.906,4.089,2.854,6.567,2.854s4.665-0.951,6.567-2.854l14.277-14.268c1.903-1.902,2.856-4.093,2.856-6.57
			c0-2.471-0.953-4.661-2.856-6.563L51.107,261.233l112.204-112.201C165.217,147.13,166.167,144.939,166.167,142.465z"/>
		<path d="M519.614,254.663L386.567,121.619c-1.902-1.902-4.093-2.857-6.563-2.857c-2.478,0-4.661,0.955-6.57,2.857l-14.271,14.275
			c-1.902,1.903-2.851,4.09-2.851,6.567s0.948,4.665,2.851,6.567l112.206,112.204L359.163,373.442
			c-1.902,1.902-2.851,4.093-2.851,6.563c0,2.478,0.948,4.668,2.851,6.57l14.271,14.268c1.909,1.906,4.093,2.854,6.57,2.854
			c2.471,0,4.661-0.951,6.563-2.854L519.614,267.8c1.903-1.902,2.854-4.096,2.854-6.57
			C522.468,258.755,521.517,256.565,519.614,254.663z"/>
        </symbol>
		<symbol id="up" viewBox="0 0 444.819 444.819" stroke="currentColor" fill="currentColor">
			<path d="M434.252,208.708L248.387,22.843c-7.042-7.043-15.693-10.564-25.977-10.564c-10.467,0-19.036,3.521-25.697,10.564
		L10.848,208.708C3.615,215.94,0,224.604,0,234.692c0,9.897,3.619,18.459,10.848,25.693l21.411,21.409
		c6.854,7.231,15.42,10.855,25.697,10.855c10.278,0,18.842-3.624,25.697-10.855l83.939-83.651v200.998
		c0,9.89,3.567,17.936,10.706,24.126c7.139,6.184,15.752,9.273,25.837,9.273h36.545c10.089,0,18.698-3.09,25.837-9.273
		c7.139-6.188,10.712-14.236,10.712-24.126V198.144l83.938,83.651c6.848,7.231,15.413,10.855,25.7,10.855
		c10.082,0,18.747-3.624,25.975-10.855l21.409-21.409c7.043-7.426,10.567-15.988,10.567-25.693
		C444.819,224.795,441.295,216.134,434.252,208.708z"/>
		</symbol>
    </defs>
</svg>