{
    "asset" : {
        "generator" : "Khronos glTF Blender I/O v0.9.36",
        "version" : "2.0"
    },
    "scene" : 0,
    "scenes" : [
        {
            "name" : "Scene",
            "nodes" : [
                0,
                1,
                2,
                3,
                4,
                5
            ]
        }
    ],
    "nodes" : [
        {
            "name" : "Light",
            "rotation" : [
                0.16907575726509094,
                0.7558803558349609,
                -0.27217137813568115,
                0.570947527885437
            ],
            "translation" : [
                4.076245307922363,
                5.903861999511719,
                -1.0054539442062378
            ]
        },
        {
            "mesh" : 0,
            "name" : "Player"
        },
        {
            "mesh" : 1,
            "name" : "Ring"
        },
        {
            "mesh" : 2,
            "name" : "Tree"
        },
        {
            "mesh" : 3,
            "name" : "SimplerTree"
        },
        {
            "mesh" : 4,
            "name" : "SimpleTree"
        }
    ],
    "materials" : [
        {
            "doubleSided" : true,
            "name" : "Material.001",
            "pbrMetallicRoughness" : {
                "metallicFactor" : 0,
                "roughnessFactor" : 0.5
            }
        },
        {
            "doubleSided" : true,
            "name" : "Material.002",
            "pbrMetallicRoughness" : {
                "metallicFactor" : 0,
                "roughnessFactor" : 0.5
            }
        },
        {
            "doubleSided" : true,
            "name" : "Material.004",
            "pbrMetallicRoughness" : {
                "metallicFactor" : 0,
                "roughnessFactor" : 0.5
            }
        },
        {
            "doubleSided" : true,
            "name" : "Material.006",
            "pbrMetallicRoughness" : {
                "metallicFactor" : 0,
                "roughnessFactor" : 0.5
            }
        }
    ],
    "meshes" : [
        {
            "name" : "Cylinder",
            "primitives" : [
                {
                    "attributes" : {
                        "POSITION" : 0,
                        "NORMAL" : 1,
                        "TEXCOORD_0" : 2,
                        "COLOR_0" : 3
                    },
                    "indices" : 4,
                    "material" : 0
                }
            ]
        },
        {
            "name" : "Torus",
            "primitives" : [
                {
                    "attributes" : {
                        "POSITION" : 5,
                        "NORMAL" : 6,
                        "TEXCOORD_0" : 7,
                        "COLOR_0" : 8
                    },
                    "indices" : 9
                }
            ]
        },
        {
            "name" : "Cylinder.001",
            "primitives" : [
                {
                    "attributes" : {
                        "POSITION" : 10,
                        "NORMAL" : 11,
                        "TEXCOORD_0" : 12,
                        "COLOR_0" : 13
                    },
                    "indices" : 14,
                    "material" : 1
                }
            ]
        },
        {
            "name" : "Cylinder.004",
            "primitives" : [
                {
                    "attributes" : {
                        "POSITION" : 15,
                        "NORMAL" : 16,
                        "TEXCOORD_0" : 17,
                        "COLOR_0" : 18
                    },
                    "indices" : 19,
                    "material" : 2
                }
            ]
        },
        {
            "name" : "Cylinder.006",
            "primitives" : [
                {
                    "attributes" : {
                        "POSITION" : 20,
                        "NORMAL" : 21,
                        "TEXCOORD_0" : 22,
                        "COLOR_0" : 23
                    },
                    "indices" : 24,
                    "material" : 3
                }
            ]
        }
    ],
    "accessors" : [
        {
            "bufferView" : 0,
            "componentType" : 5126,
            "count" : 444,
            "max" : [
                0.4635491669178009,
                0.33424267172813416,
                0.31602397561073303
            ],
            "min" : [
                -0.4489152133464813,
                -0.14621120691299438,
                -0.5964404344558716
            ],
            "type" : "VEC3"
        },
        {
            "bufferView" : 1,
            "componentType" : 5126,
            "count" : 444,
            "type" : "VEC3"
        },
        {
            "bufferView" : 2,
            "componentType" : 5126,
            "count" : 444,
            "type" : "VEC2"
        },
        {
            "bufferView" : 3,
            "componentType" : 5126,
            "count" : 444,
            "type" : "VEC4"
        },
        {
            "bufferView" : 4,
            "componentType" : 5123,
            "count" : 444,
            "type" : "SCALAR"
        },
        {
            "bufferView" : 5,
            "componentType" : 5126,
            "count" : 772,
            "max" : [
                0.930562436580658,
                0.8722056150436401,
                0.10255231708288193
            ],
            "min" : [
                -0.930562436580658,
                -0.8722057342529297,
                -0.10255216807126999
            ],
            "type" : "VEC3"
        },
        {
            "bufferView" : 6,
            "componentType" : 5126,
            "count" : 772,
            "type" : "VEC3"
        },
        {
            "bufferView" : 7,
            "componentType" : 5126,
            "count" : 772,
            "type" : "VEC2"
        },
        {
            "bufferView" : 8,
            "componentType" : 5126,
            "count" : 772,
            "type" : "VEC4"
        },
        {
            "bufferView" : 9,
            "componentType" : 5123,
            "count" : 1152,
            "type" : "SCALAR"
        },
        {
            "bufferView" : 10,
            "componentType" : 5126,
            "count" : 108,
            "max" : [
                0.25815728306770325,
                0.5789716243743896,
                0.2572772204875946
            ],
            "min" : [
                -0.22139139473438263,
                -0.10342349857091904,
                -0.2578980326652527
            ],
            "type" : "VEC3"
        },
        {
            "bufferView" : 11,
            "componentType" : 5126,
            "count" : 108,
            "type" : "VEC3"
        },
        {
            "bufferView" : 12,
            "componentType" : 5126,
            "count" : 108,
            "type" : "VEC2"
        },
        {
            "bufferView" : 13,
            "componentType" : 5126,
            "count" : 108,
            "type" : "VEC4"
        },
        {
            "bufferView" : 14,
            "componentType" : 5123,
            "count" : 108,
            "type" : "SCALAR"
        },
        {
            "bufferView" : 15,
            "componentType" : 5126,
            "count" : 12,
            "max" : [
                0.1914242058992386,
                0.57793128490448,
                0.1314944475889206
            ],
            "min" : [
                -0.19399982690811157,
                0.07787544280290604,
                -0.1993144005537033
            ],
            "type" : "VEC3"
        },
        {
            "bufferView" : 16,
            "componentType" : 5126,
            "count" : 12,
            "type" : "VEC3"
        },
        {
            "bufferView" : 17,
            "componentType" : 5126,
            "count" : 12,
            "type" : "VEC2"
        },
        {
            "bufferView" : 18,
            "componentType" : 5126,
            "count" : 12,
            "type" : "VEC4"
        },
        {
            "bufferView" : 19,
            "componentType" : 5123,
            "count" : 12,
            "type" : "SCALAR"
        },
        {
            "bufferView" : 20,
            "componentType" : 5126,
            "count" : 48,
            "max" : [
                0.27158549427986145,
                0.5789716243743896,
                0.2700897753238678
            ],
            "min" : [
                -0.20387306809425354,
                0.07957949489355087,
                -0.2716344892978668
            ],
            "type" : "VEC3"
        },
        {
            "bufferView" : 21,
            "componentType" : 5126,
            "count" : 48,
            "type" : "VEC3"
        },
        {
            "bufferView" : 22,
            "componentType" : 5126,
            "count" : 48,
            "type" : "VEC2"
        },
        {
            "bufferView" : 23,
            "componentType" : 5126,
            "count" : 48,
            "type" : "VEC4"
        },
        {
            "bufferView" : 24,
            "componentType" : 5123,
            "count" : 48,
            "type" : "SCALAR"
        }
    ],
    "bufferViews" : [
        {
            "buffer" : 0,
            "byteLength" : 5328,
            "byteOffset" : 0
        },
        {
            "buffer" : 0,
            "byteLength" : 5328,
            "byteOffset" : 5328
        },
        {
            "buffer" : 0,
            "byteLength" : 3552,
            "byteOffset" : 10656
        },
        {
            "buffer" : 0,
            "byteLength" : 7104,
            "byteOffset" : 14208
        },
        {
            "buffer" : 0,
            "byteLength" : 888,
            "byteOffset" : 21312
        },
        {
            "buffer" : 0,
            "byteLength" : 9264,
            "byteOffset" : 22200
        },
        {
            "buffer" : 0,
            "byteLength" : 9264,
            "byteOffset" : 31464
        },
        {
            "buffer" : 0,
            "byteLength" : 6176,
            "byteOffset" : 40728
        },
        {
            "buffer" : 0,
            "byteLength" : 12352,
            "byteOffset" : 46904
        },
        {
            "buffer" : 0,
            "byteLength" : 2304,
            "byteOffset" : 59256
        },
        {
            "buffer" : 0,
            "byteLength" : 1296,
            "byteOffset" : 61560
        },
        {
            "buffer" : 0,
            "byteLength" : 1296,
            "byteOffset" : 62856
        },
        {
            "buffer" : 0,
            "byteLength" : 864,
            "byteOffset" : 64152
        },
        {
            "buffer" : 0,
            "byteLength" : 1728,
            "byteOffset" : 65016
        },
        {
            "buffer" : 0,
            "byteLength" : 216,
            "byteOffset" : 66744
        },
        {
            "buffer" : 0,
            "byteLength" : 144,
            "byteOffset" : 66960
        },
        {
            "buffer" : 0,
            "byteLength" : 144,
            "byteOffset" : 67104
        },
        {
            "buffer" : 0,
            "byteLength" : 96,
            "byteOffset" : 67248
        },
        {
            "buffer" : 0,
            "byteLength" : 192,
            "byteOffset" : 67344
        },
        {
            "buffer" : 0,
            "byteLength" : 24,
            "byteOffset" : 67536
        },
        {
            "buffer" : 0,
            "byteLength" : 576,
            "byteOffset" : 67560
        },
        {
            "buffer" : 0,
            "byteLength" : 576,
            "byteOffset" : 68136
        },
        {
            "buffer" : 0,
            "byteLength" : 384,
            "byteOffset" : 68712
        },
        {
            "buffer" : 0,
            "byteLength" : 768,
            "byteOffset" : 69096
        },
        {
            "buffer" : 0,
            "byteLength" : 96,
            "byteOffset" : 69864
        }
    ],
    "buffers" : [
        {
            "byteLength" : 69960,
            "uri" : "data:application/octet-stream;base64,"
        }
    ]
}
