{
    "asset" : {
        "generator" : "Khronos glTF Blender I/O v0.9.36",
        "version" : "2.0"
    },
    "scene" : 0,
    "scenes" : [
        {
            "name" : "Scene",
            "nodes" : [
                0,
                1,
                2
            ]
        }
    ],
    "nodes" : [
        {
            "mesh" : 0,
            "name" : "Tree"
        },
        {
            "mesh" : 1,
            "name" : "Player"
        },
        {
            "mesh" : 2,
            "name" : "Ring"
        }
    ],
    "materials" : [
        {
            "doubleSided" : true,
            "name" : "Material.007",
            "pbrMetallicRoughness" : {
                "metallicFactor" : 0,
                "roughnessFactor" : 0.5
            }
        },
        {
            "doubleSided" : true,
            "name" : "Material.001",
            "pbrMetallicRoughness" : {
                "metallicFactor" : 0,
                "roughnessFactor" : 0.5
            }
        }
    ],
    "meshes" : [
        {
            "name" : "Cylinder.002",
            "primitives" : [
                {
                    "attributes" : {
                        "POSITION" : 0,
                        "NORMAL" : 1,
                        "TEXCOORD_0" : 2,
                        "COLOR_0" : 3
                    },
                    "indices" : 4,
                    "material" : 0
                }
            ]
        },
        {
            "name" : "Cylinder",
            "primitives" : [
                {
                    "attributes" : {
                        "POSITION" : 5,
                        "NORMAL" : 6,
                        "TEXCOORD_0" : 7,
                        "COLOR_0" : 8
                    },
                    "indices" : 9,
                    "material" : 1
                }
            ]
        },
        {
            "name" : "Torus",
            "primitives" : [
                {
                    "attributes" : {
                        "POSITION" : 10,
                        "NORMAL" : 11,
                        "TEXCOORD_0" : 12,
                        "COLOR_0" : 13
                    },
                    "indices" : 14
                }
            ]
        }
    ],
    "accessors" : [
        {
            "bufferView" : 0,
            "componentType" : 5126,
            "count" : 516,
            "max" : [
                0.26086774468421936,
                0.5789716243743896,
                0.2579193115234375
            ],
            "min" : [
                -0.26012393832206726,
                -0.10342349112033844,
                -0.26195839047431946
            ],
            "type" : "VEC3"
        },
        {
            "bufferView" : 1,
            "componentType" : 5126,
            "count" : 516,
            "type" : "VEC3"
        },
        {
            "bufferView" : 2,
            "componentType" : 5126,
            "count" : 516,
            "type" : "VEC2"
        },
        {
            "bufferView" : 3,
            "componentType" : 5126,
            "count" : 516,
            "type" : "VEC4"
        },
        {
            "bufferView" : 4,
            "componentType" : 5123,
            "count" : 516,
            "type" : "SCALAR"
        },
        {
            "bufferView" : 5,
            "componentType" : 5126,
            "count" : 444,
            "max" : [
                0.4635491669178009,
                0.33424267172813416,
                0.31602397561073303
            ],
            "min" : [
                -0.4489152133464813,
                -0.14621120691299438,
                -0.5964404344558716
            ],
            "type" : "VEC3"
        },
        {
            "bufferView" : 6,
            "componentType" : 5126,
            "count" : 444,
            "type" : "VEC3"
        },
        {
            "bufferView" : 7,
            "componentType" : 5126,
            "count" : 444,
            "type" : "VEC2"
        },
        {
            "bufferView" : 8,
            "componentType" : 5126,
            "count" : 444,
            "type" : "VEC4"
        },
        {
            "bufferView" : 9,
            "componentType" : 5123,
            "count" : 444,
            "type" : "SCALAR"
        },
        {
            "bufferView" : 10,
            "componentType" : 5126,
            "count" : 772,
            "max" : [
                0.930562436580658,
                0.8722056150436401,
                0.10255231708288193
            ],
            "min" : [
                -0.930562436580658,
                -0.8722057342529297,
                -0.10255216807126999
            ],
            "type" : "VEC3"
        },
        {
            "bufferView" : 11,
            "componentType" : 5126,
            "count" : 772,
            "type" : "VEC3"
        },
        {
            "bufferView" : 12,
            "componentType" : 5126,
            "count" : 772,
            "type" : "VEC2"
        },
        {
            "bufferView" : 13,
            "componentType" : 5126,
            "count" : 772,
            "type" : "VEC4"
        },
        {
            "bufferView" : 14,
            "componentType" : 5123,
            "count" : 1152,
            "type" : "SCALAR"
        }
    ],
    "bufferViews" : [
        {
            "buffer" : 0,
            "byteLength" : 6192,
            "byteOffset" : 0
        },
        {
            "buffer" : 0,
            "byteLength" : 6192,
            "byteOffset" : 6192
        },
        {
            "buffer" : 0,
            "byteLength" : 4128,
            "byteOffset" : 12384
        },
        {
            "buffer" : 0,
            "byteLength" : 8256,
            "byteOffset" : 16512
        },
        {
            "buffer" : 0,
            "byteLength" : 1032,
            "byteOffset" : 24768
        },
        {
            "buffer" : 0,
            "byteLength" : 5328,
            "byteOffset" : 25800
        },
        {
            "buffer" : 0,
            "byteLength" : 5328,
            "byteOffset" : 31128
        },
        {
            "buffer" : 0,
            "byteLength" : 3552,
            "byteOffset" : 36456
        },
        {
            "buffer" : 0,
            "byteLength" : 7104,
            "byteOffset" : 40008
        },
        {
            "buffer" : 0,
            "byteLength" : 888,
            "byteOffset" : 47112
        },
        {
            "buffer" : 0,
            "byteLength" : 9264,
            "byteOffset" : 48000
        },
        {
            "buffer" : 0,
            "byteLength" : 9264,
            "byteOffset" : 57264
        },
        {
            "buffer" : 0,
            "byteLength" : 6176,
            "byteOffset" : 66528
        },
        {
            "buffer" : 0,
            "byteLength" : 12352,
            "byteOffset" : 72704
        },
        {
            "buffer" : 0,
            "byteLength" : 2304,
            "byteOffset" : 85056
        }
    ],
    "buffers" : [
        {
            "byteLength" : 87360,
            "uri" : "data:application/octet-stream;base64,"
        }
    ]
}
