{
    "asset" : {
        "generator" : "Khronos glTF Blender I/O v0.9.36",
        "version" : "2.0"
    },
    "scene" : 0,
    "scenes" : [
        {
            "name" : "Scene",
            "nodes" : [
                0,
                1,
                2,
                3,
                7,
                8,
                9
            ]
        }
    ],
    "nodes" : [
        {
            "mesh" : 0,
            "name" : "curbs",
            "translation" : [
                0,
                0,
                -0.5
            ]
        },
        {
            "mesh" : 1,
            "name" : "grass",
            "translation" : [
                0,
                0,
                16
            ]
        },
        {
            "mesh" : 2,
            "name" : "hill",
            "translation" : [
                0,
                0.47999998927116394,
                -6
            ]
        },
        {
            "mesh" : 3,
            "name" : "road",
            "translation" : [
                0,
                0,
                5
            ]
        },
        {
            "mesh" : 4,
            "name" : "door",
            "rotation" : [
                0.9853271245956421,
                0,
                0,
                0.17067626118659973
            ],
            "translation" : [
                0.05452179163694382,
                -1.4939789772033691,
                0.02244238555431366
            ]
        },
        {
            "mesh" : 5,
            "name" : "flag",
            "rotation" : [
                -0.5000000596046448,
                -0.5000000596046448,
                -0.5000000596046448,
                0.5
            ],
            "translation" : [
                -0.908254861831665,
                0.9043298959732056,
                -0.9429364800453186
            ]
        },
        {
            "mesh" : 6,
            "name" : "post",
            "rotation" : [
                -0.7071068286895752,
                0,
                0,
                0.7071068286895752
            ],
            "translation" : [
                0,
                0,
                2.0299999713897705
            ]
        },
        {
            "children" : [
                4,
                5,
                6
            ],
            "mesh" : 7,
            "name" : "box",
            "rotation" : [
                0,
                0.7071067690849304,
                -0.7071067690849304,
                -1.152023116901546e-07
            ],
            "translation" : [
                0,
                2.846886157989502,
                -0.4605056345462799
            ]
        },
        {
            "mesh" : 8,
            "name" : "letter",
            "rotation" : [
                0,
                0,
                -0.40274667739868164,
                0.9153115153312683
            ],
            "scale" : [
                0.7355640530586243,
                0.7355640530586243,
                0.7355640530586243
            ],
            "translation" : [
                0.004388034343719482,
                3.306612253189087,
                -0.11819159984588623
            ]
        },
        {
            "mesh" : 9,
            "name" : "heart",
            "rotation" : [
                0,
                0,
                -0.38593679666519165,
                0.9225252270698547
            ],
            "scale" : [
                0.6663509607315063,
                0.6663509607315063,
                0.6663509607315063
            ],
            "translation" : [
                -0.07437767088413239,
                3.454711437225342,
                0.14788907766342163
            ]
        }
    ],
    "materials" : [
        {
            "doubleSided" : true,
            "name" : "curb",
            "pbrMetallicRoughness" : {
                "baseColorFactor" : [
                    0.5983946919441223,
                    0.5983946919441223,
                    0.5983946919441223,
                    1
                ],
                "metallicFactor" : 0,
                "roughnessFactor" : 0.5
            }
        },
        {
            "doubleSided" : true,
            "name" : "grass",
            "pbrMetallicRoughness" : {
                "baseColorFactor" : [
                    0.003911938983947039,
                    0.4641399383544922,
                    0.06962691992521286,
                    1
                ],
                "metallicFactor" : 0.29357796907424927,
                "roughnessFactor" : 0
            }
        },
        {
            "doubleSided" : true,
            "name" : "road",
            "pbrMetallicRoughness" : {
                "baseColorFactor" : [
                    0.12621833384037018,
                    0.12621833384037018,
                    0.12621833384037018,
                    1
                ],
                "metallicFactor" : 0,
                "roughnessFactor" : 0.5
            }
        },
        {
            "doubleSided" : true,
            "name" : "door",
            "pbrMetallicRoughness" : {
                "baseColorFactor" : [
                    0.5028864741325378,
                    0.5028864741325378,
                    0.5028864741325378,
                    1
                ],
                "metallicFactor" : 0,
                "roughnessFactor" : 0.5
            }
        },
        {
            "doubleSided" : true,
            "name" : "flag",
            "pbrMetallicRoughness" : {
                "baseColorFactor" : [
                    0.8000000715255737,
                    0,
                    0.003964363131672144,
                    1
                ],
                "metallicFactor" : 0,
                "roughnessFactor" : 0.5
            }
        },
        {
            "doubleSided" : true,
            "name" : "post",
            "pbrMetallicRoughness" : {
                "baseColorFactor" : [
                    0.25818300247192383,
                    0.0595112144947052,
                    0.00651209894567728,
                    1
                ],
                "metallicFactor" : 0,
                "roughnessFactor" : 0.5
            }
        },
        {
            "doubleSided" : true,
            "name" : "box",
            "pbrMetallicRoughness" : {
                "baseColorFactor" : [
                    0.20155629515647888,
                    0.20155631005764008,
                    0.20155632495880127,
                    1
                ],
                "metallicFactor" : 0,
                "roughnessFactor" : 0
            }
        },
        {
            "doubleSided" : true,
            "name" : "Material.001",
            "pbrMetallicRoughness" : {
                "baseColorFactor" : [
                    0.6634613871574402,
                    0.6390381455421448,
                    0.4476744830608368,
                    1
                ],
                "metallicFactor" : 0,
                "roughnessFactor" : 0.5
            }
        },
        {
            "doubleSided" : true,
            "name" : "Material.002",
            "pbrMetallicRoughness" : {
                "baseColorFactor" : [
                    0.8000000715255737,
                    0,
                    0.0077251470647752285,
                    1
                ],
                "metallicFactor" : 0,
                "roughnessFactor" : 0.5
            }
        }
    ],
    "meshes" : [
        {
            "name" : "curbsMesh",
            "primitives" : [
                {
                    "attributes" : {
                        "POSITION" : 0,
                        "NORMAL" : 1,
                        "TEXCOORD_0" : 2
                    },
                    "indices" : 3,
                    "material" : 0
                }
            ]
        },
        {
            "name" : "grassMesh",
            "primitives" : [
                {
                    "attributes" : {
                        "POSITION" : 4,
                        "NORMAL" : 5,
                        "TEXCOORD_0" : 6
                    },
                    "indices" : 7,
                    "material" : 1
                }
            ]
        },
        {
            "name" : "hillMesh",
            "primitives" : [
                {
                    "attributes" : {
                        "POSITION" : 8,
                        "NORMAL" : 9,
                        "TEXCOORD_0" : 10
                    },
                    "indices" : 11,
                    "material" : 1
                }
            ]
        },
        {
            "name" : "roadMesh",
            "primitives" : [
                {
                    "attributes" : {
                        "POSITION" : 12,
                        "NORMAL" : 13,
                        "TEXCOORD_0" : 14
                    },
                    "indices" : 7,
                    "material" : 2
                }
            ]
        },
        {
            "name" : "doorMesh",
            "primitives" : [
                {
                    "attributes" : {
                        "POSITION" : 15,
                        "NORMAL" : 16,
                        "TEXCOORD_0" : 17
                    },
                    "indices" : 18,
                    "material" : 3
                }
            ]
        },
        {
            "name" : "flagMesh",
            "primitives" : [
                {
                    "attributes" : {
                        "POSITION" : 19,
                        "NORMAL" : 20,
                        "TEXCOORD_0" : 21
                    },
                    "indices" : 22,
                    "material" : 4
                }
            ]
        },
        {
            "name" : "postMesh",
            "primitives" : [
                {
                    "attributes" : {
                        "POSITION" : 23,
                        "NORMAL" : 24,
                        "TEXCOORD_0" : 25
                    },
                    "indices" : 26,
                    "material" : 5
                }
            ]
        },
        {
            "name" : "boxMesh",
            "primitives" : [
                {
                    "attributes" : {
                        "POSITION" : 27,
                        "NORMAL" : 28,
                        "TEXCOORD_0" : 29
                    },
                    "indices" : 30,
                    "material" : 6
                }
            ]
        },
        {
            "name" : "letter",
            "primitives" : [
                {
                    "attributes" : {
                        "POSITION" : 31,
                        "NORMAL" : 32,
                        "TEXCOORD_0" : 33
                    },
                    "indices" : 7,
                    "material" : 7
                }
            ]
        },
        {
            "name" : "heart",
            "primitives" : [
                {
                    "attributes" : {
                        "POSITION" : 34,
                        "NORMAL" : 35,
                        "TEXCOORD_0" : 36
                    },
                    "indices" : 37,
                    "material" : 8
                }
            ]
        }
    ],
    "accessors" : [
        {
            "bufferView" : 0,
            "componentType" : 5126,
            "count" : 48,
            "max" : [
                20.77699089050293,
                0.5,
                11.5
            ],
            "min" : [
                -30.547788619995117,
                -0.5,
                -0.5
            ],
            "type" : "VEC3"
        },
        {
            "bufferView" : 1,
            "componentType" : 5126,
            "count" : 48,
            "type" : "VEC3"
        },
        {
            "bufferView" : 2,
            "componentType" : 5126,
            "count" : 48,
            "type" : "VEC2"
        },
        {
            "bufferView" : 3,
            "componentType" : 5123,
            "count" : 72,
            "type" : "SCALAR"
        },
        {
            "bufferView" : 4,
            "componentType" : 5126,
            "count" : 4,
            "max" : [
                20.56739044189453,
                0,
                39.802059173583984
            ],
            "min" : [
                -30.01836395263672,
                0,
                -5
            ],
            "type" : "VEC3"
        },
        {
            "bufferView" : 5,
            "componentType" : 5126,
            "count" : 4,
            "type" : "VEC3"
        },
        {
            "bufferView" : 6,
            "componentType" : 5126,
            "count" : 4,
            "type" : "VEC2"
        },
        {
            "bufferView" : 7,
            "componentType" : 5123,
            "count" : 6,
            "type" : "SCALAR"
        },
        {
            "bufferView" : 8,
            "componentType" : 5126,
            "count" : 246,
            "max" : [
                20.623916625976562,
                6.962998867034912,
                5
            ],
            "min" : [
                -30.41644287109375,
                -0.28833985328674316,
                -44.319576263427734
            ],
            "type" : "VEC3"
        },
        {
            "bufferView" : 9,
            "componentType" : 5126,
            "count" : 246,
            "type" : "VEC3"
        },
        {
            "bufferView" : 10,
            "componentType" : 5126,
            "count" : 246,
            "type" : "VEC2"
        },
        {
            "bufferView" : 11,
            "componentType" : 5123,
            "count" : 384,
            "type" : "SCALAR"
        },
        {
            "bufferView" : 12,
            "componentType" : 5126,
            "count" : 4,
            "max" : [
                21.218393325805664,
                0,
                5
            ],
            "min" : [
                -30.17213249206543,
                0,
                -5
            ],
            "type" : "VEC3"
        },
        {
            "bufferView" : 13,
            "componentType" : 5126,
            "count" : 4,
            "type" : "VEC3"
        },
        {
            "bufferView" : 14,
            "componentType" : 5126,
            "count" : 4,
            "type" : "VEC2"
        },
        {
            "bufferView" : 15,
            "componentType" : 5126,
            "count" : 62,
            "max" : [
                0.8008334040641785,
                1.7170252799987793,
                0.015102600678801537
            ],
            "min" : [
                -0.8988484740257263,
                -0.007526346482336521,
                -0.11577868461608887
            ],
            "type" : "VEC3"
        },
        {
            "bufferView" : 16,
            "componentType" : 5126,
            "count" : 62,
            "type" : "VEC3"
        },
        {
            "bufferView" : 17,
            "componentType" : 5126,
            "count" : 62,
            "type" : "VEC2"
        },
        {
            "bufferView" : 18,
            "componentType" : 5123,
            "count" : 138,
            "type" : "SCALAR"
        },
        {
            "bufferView" : 19,
            "componentType" : 5126,
            "count" : 90,
            "max" : [
                0.20090937614440918,
                0.05986230820417404,
                0.7212550640106201
            ],
            "min" : [
                -1.7990906238555908,
                -1.7542392015457153e-05,
                -0.16233986616134644
            ],
            "type" : "VEC3"
        },
        {
            "bufferView" : 20,
            "componentType" : 5126,
            "count" : 90,
            "type" : "VEC3"
        },
        {
            "bufferView" : 21,
            "componentType" : 5126,
            "count" : 90,
            "type" : "VEC2"
        },
        {
            "bufferView" : 22,
            "componentType" : 5123,
            "count" : 168,
            "type" : "SCALAR"
        },
        {
            "bufferView" : 23,
            "componentType" : 5126,
            "count" : 24,
            "max" : [
                0.25,
                2.015671968460083,
                0.25
            ],
            "min" : [
                -0.25,
                -0.25,
                -0.25
            ],
            "type" : "VEC3"
        },
        {
            "bufferView" : 24,
            "componentType" : 5126,
            "count" : 24,
            "type" : "VEC3"
        },
        {
            "bufferView" : 25,
            "componentType" : 5126,
            "count" : 24,
            "type" : "VEC2"
        },
        {
            "bufferView" : 26,
            "componentType" : 5123,
            "count" : 36,
            "type" : "SCALAR"
        },
        {
            "bufferView" : 27,
            "componentType" : 5126,
            "count" : 190,
            "max" : [
                0.8443279266357422,
                1.5,
                0.02243894338607788
            ],
            "min" : [
                -0.8443270325660706,
                -1.5,
                -1.6948187351226807
            ],
            "type" : "VEC3"
        },
        {
            "bufferView" : 28,
            "componentType" : 5126,
            "count" : 190,
            "type" : "VEC3"
        },
        {
            "bufferView" : 29,
            "componentType" : 5126,
            "count" : 190,
            "type" : "VEC2"
        },
        {
            "bufferView" : 30,
            "componentType" : 5123,
            "count" : 330,
            "type" : "SCALAR"
        },
        {
            "bufferView" : 31,
            "componentType" : 5126,
            "count" : 4,
            "max" : [
                0.75,
                0,
                1.4047735929489136
            ],
            "min" : [
                -0.75,
                0,
                -0.75
            ],
            "type" : "VEC3"
        },
        {
            "bufferView" : 32,
            "componentType" : 5126,
            "count" : 4,
            "type" : "VEC3"
        },
        {
            "bufferView" : 33,
            "componentType" : 5126,
            "count" : 4,
            "type" : "VEC2"
        },
        {
            "bufferView" : 34,
            "componentType" : 5126,
            "count" : 32,
            "max" : [
                0.7730351686477661,
                0,
                0.5199999809265137
            ],
            "min" : [
                -0.3199688792228699,
                0,
                -0.5199999809265137
            ],
            "type" : "VEC3"
        },
        {
            "bufferView" : 35,
            "componentType" : 5126,
            "count" : 32,
            "type" : "VEC3"
        },
        {
            "bufferView" : 36,
            "componentType" : 5126,
            "count" : 32,
            "type" : "VEC2"
        },
        {
            "bufferView" : 37,
            "componentType" : 5123,
            "count" : 90,
            "type" : "SCALAR"
        }
    ],
    "bufferViews" : [
        {
            "buffer" : 0,
            "byteLength" : 576,
            "byteOffset" : 0
        },
        {
            "buffer" : 0,
            "byteLength" : 576,
            "byteOffset" : 576
        },
        {
            "buffer" : 0,
            "byteLength" : 384,
            "byteOffset" : 1152
        },
        {
            "buffer" : 0,
            "byteLength" : 144,
            "byteOffset" : 1536
        },
        {
            "buffer" : 0,
            "byteLength" : 48,
            "byteOffset" : 1680
        },
        {
            "buffer" : 0,
            "byteLength" : 48,
            "byteOffset" : 1728
        },
        {
            "buffer" : 0,
            "byteLength" : 32,
            "byteOffset" : 1776
        },
        {
            "buffer" : 0,
            "byteLength" : 12,
            "byteOffset" : 1808
        },
        {
            "buffer" : 0,
            "byteLength" : 2952,
            "byteOffset" : 1820
        },
        {
            "buffer" : 0,
            "byteLength" : 2952,
            "byteOffset" : 4772
        },
        {
            "buffer" : 0,
            "byteLength" : 1968,
            "byteOffset" : 7724
        },
        {
            "buffer" : 0,
            "byteLength" : 768,
            "byteOffset" : 9692
        },
        {
            "buffer" : 0,
            "byteLength" : 48,
            "byteOffset" : 10460
        },
        {
            "buffer" : 0,
            "byteLength" : 48,
            "byteOffset" : 10508
        },
        {
            "buffer" : 0,
            "byteLength" : 32,
            "byteOffset" : 10556
        },
        {
            "buffer" : 0,
            "byteLength" : 744,
            "byteOffset" : 10588
        },
        {
            "buffer" : 0,
            "byteLength" : 744,
            "byteOffset" : 11332
        },
        {
            "buffer" : 0,
            "byteLength" : 496,
            "byteOffset" : 12076
        },
        {
            "buffer" : 0,
            "byteLength" : 276,
            "byteOffset" : 12572
        },
        {
            "buffer" : 0,
            "byteLength" : 1080,
            "byteOffset" : 12848
        },
        {
            "buffer" : 0,
            "byteLength" : 1080,
            "byteOffset" : 13928
        },
        {
            "buffer" : 0,
            "byteLength" : 720,
            "byteOffset" : 15008
        },
        {
            "buffer" : 0,
            "byteLength" : 336,
            "byteOffset" : 15728
        },
        {
            "buffer" : 0,
            "byteLength" : 288,
            "byteOffset" : 16064
        },
        {
            "buffer" : 0,
            "byteLength" : 288,
            "byteOffset" : 16352
        },
        {
            "buffer" : 0,
            "byteLength" : 192,
            "byteOffset" : 16640
        },
        {
            "buffer" : 0,
            "byteLength" : 72,
            "byteOffset" : 16832
        },
        {
            "buffer" : 0,
            "byteLength" : 2280,
            "byteOffset" : 16904
        },
        {
            "buffer" : 0,
            "byteLength" : 2280,
            "byteOffset" : 19184
        },
        {
            "buffer" : 0,
            "byteLength" : 1520,
            "byteOffset" : 21464
        },
        {
            "buffer" : 0,
            "byteLength" : 660,
            "byteOffset" : 22984
        },
        {
            "buffer" : 0,
            "byteLength" : 48,
            "byteOffset" : 23644
        },
        {
            "buffer" : 0,
            "byteLength" : 48,
            "byteOffset" : 23692
        },
        {
            "buffer" : 0,
            "byteLength" : 32,
            "byteOffset" : 23740
        },
        {
            "buffer" : 0,
            "byteLength" : 384,
            "byteOffset" : 23772
        },
        {
            "buffer" : 0,
            "byteLength" : 384,
            "byteOffset" : 24156
        },
        {
            "buffer" : 0,
            "byteLength" : 256,
            "byteOffset" : 24540
        },
        {
            "buffer" : 0,
            "byteLength" : 180,
            "byteOffset" : 24796
        }
    ],
    "buffers" : [
        {
            "byteLength" : 24976,
            "uri" : "data:application/octet-stream;base64,"
        }
    ]
}
